<?xml version="1.0" standalone="no"?><svg xmlns="http://www.w3.org/2000/svg" viewBox="0 0 1440 320"><path fill="#C4DFDF" fill-opacity="1" d="M0,128L40,138.7C80,149,160,171,240,160C320,149,400,107,480,122.7C560,139,640,213,720,245.3C800,277,880,267,960,234.7C1040,203,1120,149,1200,122.7C1280,96,1360,96,1400,96L1440,96L1440,320L1400,320C1360,320,1280,320,1200,320C1120,320,1040,320,960,320C880,320,800,320,720,320C640,320,560,320,480,320C400,320,320,320,240,320C160,320,80,320,40,320L0,320Z"></path></svg>